<svg width="1664" height="402" viewBox="0 0 1664 402" fill="none" xmlns="http://www.w3.org/2000/svg">
<path d="M25.5034 398V0" stroke="#FDFEFD" stroke-opacity="0.3" stroke-width="0.676851"/>
<path d="M93.2798 398V0" stroke="#FDFEFD" stroke-opacity="0.3" stroke-width="0.676851"/>
<path d="M161.056 398V0" stroke="#FDFEFD" stroke-opacity="0.3" stroke-width="0.676851"/>
<path d="M227.836 398V0" stroke="#FDFEFD" stroke-opacity="0.3" stroke-width="0.676851"/>
<path d="M295.612 398V0" stroke="#FDFEFD" stroke-opacity="0.3" stroke-width="0.676851"/>
<path d="M363.389 398V0" stroke="#FDFEFD" stroke-opacity="0.3" stroke-width="0.676851"/>
<path d="M430.167 398V0" stroke="#FDFEFD" stroke-opacity="0.3" stroke-width="0.676851"/>
<path d="M497.944 398V0" stroke="#FDFEFD" stroke-opacity="0.3" stroke-width="0.676851"/>
<path d="M565.72 398V0" stroke="#FDFEFD" stroke-opacity="0.3" stroke-width="0.676851"/>
<path d="M632.5 398V0" stroke="#FDFEFD" stroke-opacity="0.3" stroke-width="0.676851"/>
<path d="M700.276 398V0" stroke="#FDFEFD" stroke-opacity="0.3" stroke-width="0.676851"/>
<path d="M768.053 398V0" stroke="#FDFEFD" stroke-opacity="0.3" stroke-width="0.676851"/>
<path d="M834.832 398V0" stroke="#FDFEFD" stroke-opacity="0.3" stroke-width="0.676851"/>
<path d="M902.608 398V0" stroke="#FDFEFD" stroke-opacity="0.3" stroke-width="0.676851"/>
<path d="M970.385 398V0" stroke="#FDFEFD" stroke-opacity="0.3" stroke-width="0.676851"/>
<path d="M1037.16 398V0" stroke="#FDFEFD" stroke-opacity="0.3" stroke-width="0.676851"/>
<path d="M1104.94 398V0" stroke="#FDFEFD" stroke-opacity="0.3" stroke-width="0.676851"/>
<path d="M1172.72 398V0" stroke="#FDFEFD" stroke-opacity="0.3" stroke-width="0.676851"/>
<path d="M1240.49 398V0" stroke="#FDFEFD" stroke-opacity="0.3" stroke-width="0.676851"/>
<path d="M1307.27 398V0" stroke="#FDFEFD" stroke-opacity="0.3" stroke-width="0.676851"/>
<path d="M1375.05 398V0" stroke="#FDFEFD" stroke-opacity="0.3" stroke-width="0.676851"/>
<path d="M1442.83 398V0" stroke="#FDFEFD" stroke-opacity="0.3" stroke-width="0.676851"/>
<path d="M1509.6 398V0" stroke="#FDFEFD" stroke-opacity="0.3" stroke-width="0.676851"/>
<path d="M1577.38 398V0" stroke="#FDFEFD" stroke-opacity="0.3" stroke-width="0.676851"/>
<path d="M1645.16 398V0" stroke="#FDFEFD" stroke-opacity="0.3" stroke-width="0.676851"/>
<path d="M0 63.2404H1663.51" stroke="#FDFEFD" stroke-opacity="0.3" stroke-width="0.676851"/>
<path d="M0 131.24H1663.51" stroke="#FDFEFD" stroke-opacity="0.3" stroke-width="0.676851"/>
<path d="M0 198.24H1663.51" stroke="#FDFEFD" stroke-opacity="0.3" stroke-width="0.676851"/>
<path d="M0 266.24H1663.51" stroke="#FDFEFD" stroke-opacity="0.3" stroke-width="0.676851"/>
<path d="M0 334.24H1663.51" stroke="#FDFEFD" stroke-opacity="0.3" stroke-width="0.676851"/>
<path d="M0 401.24H1663.51" stroke="#FDFEFD" stroke-opacity="0.3" stroke-width="0.676851"/>
</svg>
